<svg width="117" height="33" viewBox="0 0 117 33" fill="none" xmlns="http://www.w3.org/2000/svg">
<path d="M42.6815 20.3916V28.9732H40.9603V25.3217H37.2842V28.9732H35.5629V20.3916H37.2842V23.9201H40.9603V20.3916H42.6815ZM47.4002 29.0839C46.7445 29.0839 46.1543 28.9404 45.6297 28.6536C45.1052 28.3585 44.6912 27.9446 44.388 27.4118C44.0929 26.879 43.9454 26.2643 43.9454 25.5676C43.9454 24.8709 44.097 24.2562 44.4003 23.7234C44.7117 23.1906 45.1339 22.7808 45.6666 22.4939C46.1994 22.1989 46.7936 22.0513 47.4493 22.0513C48.1051 22.0513 48.6993 22.1989 49.2321 22.4939C49.7648 22.7808 50.1829 23.1906 50.4861 23.7234C50.7976 24.2562 50.9533 24.8709 50.9533 25.5676C50.9533 26.2643 50.7935 26.879 50.4738 27.4118C50.1624 27.9446 49.7361 28.3585 49.1952 28.6536C48.6624 28.9404 48.0641 29.0839 47.4002 29.0839ZM47.4002 27.5839C47.7116 27.5839 48.0026 27.5102 48.2731 27.3626C48.5518 27.2069 48.7731 26.9774 48.937 26.6741C49.1009 26.3708 49.1829 26.002 49.1829 25.5676C49.1829 24.9201 49.0108 24.4242 48.6665 24.0799C48.3305 23.7275 47.9165 23.5513 47.4248 23.5513C46.933 23.5513 46.5191 23.7275 46.183 24.0799C45.8551 24.4242 45.6912 24.9201 45.6912 25.5676C45.6912 26.2151 45.851 26.7151 46.1707 27.0675C46.4986 27.4118 46.9084 27.5839 47.4002 27.5839ZM54.8224 29.0839C54.265 29.0839 53.765 28.9855 53.3224 28.7888C52.8798 28.5839 52.5274 28.3093 52.2651 27.9651C52.011 27.6208 51.8717 27.2397 51.8471 26.8217H53.5806C53.6134 27.0839 53.7405 27.3011 53.9618 27.4733C54.1913 27.6454 54.474 27.7315 54.8101 27.7315C55.1379 27.7315 55.392 27.6659 55.5724 27.5347C55.7609 27.4036 55.8551 27.2356 55.8551 27.0307C55.8551 26.8094 55.7404 26.6454 55.5109 26.5389C55.2896 26.4241 54.933 26.3012 54.4412 26.17C53.9331 26.0471 53.5151 25.92 53.1872 25.7889C52.8675 25.6578 52.5889 25.4569 52.3512 25.1865C52.1217 24.916 52.0069 24.5512 52.0069 24.0922C52.0069 23.7152 52.1135 23.371 52.3266 23.0595C52.5479 22.748 52.8593 22.5021 53.261 22.3218C53.6708 22.1415 54.1503 22.0513 54.6994 22.0513C55.5109 22.0513 56.1584 22.2562 56.642 22.6661C57.1256 23.0677 57.392 23.6128 57.4411 24.3013H55.7937C55.7691 24.0308 55.6543 23.8177 55.4494 23.6619C55.2527 23.498 54.9863 23.416 54.6503 23.416C54.3388 23.416 54.097 23.4734 53.9249 23.5882C53.7609 23.7029 53.679 23.8627 53.679 24.0677C53.679 24.2972 53.7937 24.4734 54.0232 24.5963C54.2527 24.7111 54.6093 24.8299 55.0929 24.9529C55.5846 25.0758 55.9904 25.2029 56.31 25.334C56.6297 25.4651 56.9043 25.6701 57.1338 25.9487C57.3715 26.2192 57.4944 26.5799 57.5026 27.0307C57.5026 27.4241 57.392 27.7765 57.1707 28.088C56.9575 28.3995 56.6461 28.6454 56.2363 28.8257C55.8346 28.9978 55.3633 29.0839 54.8224 29.0839ZM60.6368 23.1456C60.8581 22.8341 61.1614 22.5759 61.5466 22.371C61.94 22.1579 62.3867 22.0513 62.8867 22.0513C63.4686 22.0513 63.9932 22.1948 64.4604 22.4816C64.9358 22.7685 65.3087 23.1783 65.5792 23.7111C65.8579 24.2357 65.9972 24.8463 65.9972 25.543C65.9972 26.2397 65.8579 26.8585 65.5792 27.3995C65.3087 27.9323 64.9358 28.3462 64.4604 28.6413C63.9932 28.9363 63.4686 29.0839 62.8867 29.0839C62.3867 29.0839 61.9441 28.9814 61.5589 28.7765C61.1818 28.5716 60.8745 28.3134 60.6368 28.0019V32.219H58.9155V22.162H60.6368V23.1456ZM64.2391 25.543C64.2391 25.1332 64.153 24.7807 63.9809 24.4857C63.817 24.1824 63.5957 23.9529 63.317 23.7972C63.0465 23.6414 62.7515 23.5636 62.4318 23.5636C62.1203 23.5636 61.8253 23.6455 61.5466 23.8095C61.2761 23.9652 61.0548 24.1947 60.8827 24.498C60.7187 24.8012 60.6368 25.1578 60.6368 25.5676C60.6368 25.9774 60.7187 26.334 60.8827 26.6372C61.0548 26.9405 61.2761 27.1741 61.5466 27.338C61.8253 27.4938 62.1203 27.5716 62.4318 27.5716C62.7515 27.5716 63.0465 27.4897 63.317 27.3257C63.5957 27.1618 63.817 26.9282 63.9809 26.6249C64.153 26.3217 64.2391 25.961 64.2391 25.543ZM68.1209 21.3505C67.8177 21.3505 67.5636 21.2563 67.3587 21.0678C67.162 20.871 67.0636 20.6293 67.0636 20.3424C67.0636 20.0555 67.162 19.8178 67.3587 19.6293C67.5636 19.4326 67.8177 19.3342 68.1209 19.3342C68.4242 19.3342 68.6742 19.4326 68.8709 19.6293C69.0758 19.8178 69.1783 20.0555 69.1783 20.3424C69.1783 20.6293 69.0758 20.871 68.8709 21.0678C68.6742 21.2563 68.4242 21.3505 68.1209 21.3505ZM68.9693 22.162V28.9732H67.248V22.162H68.9693ZM72.6739 23.5759V26.8708C72.6739 27.1003 72.7272 27.2684 72.8337 27.3749C72.9485 27.4733 73.137 27.5224 73.3993 27.5224H74.1984V28.9732H73.1165C71.6657 28.9732 70.9404 28.2683 70.9404 26.8585V23.5759H70.1289V22.162H70.9404V20.4776H72.6739V22.162H74.1984V23.5759H72.6739ZM74.9938 25.543C74.9938 24.8545 75.1291 24.2439 75.3996 23.7111C75.6782 23.1783 76.0512 22.7685 76.5184 22.4816C76.9938 22.1948 77.5224 22.0513 78.1044 22.0513C78.6126 22.0513 79.0552 22.1538 79.4322 22.3587C79.8174 22.5636 80.1248 22.8218 80.3543 23.1333V22.162H82.0878V28.9732H80.3543V27.9773C80.133 28.297 79.8256 28.5634 79.4322 28.7765C79.047 28.9814 78.6003 29.0839 78.0921 29.0839C77.5183 29.0839 76.9938 28.9363 76.5184 28.6413C76.0512 28.3462 75.6782 27.9323 75.3996 27.3995C75.1291 26.8585 74.9938 26.2397 74.9938 25.543ZM80.3543 25.5676C80.3543 25.1496 80.2723 24.793 80.1084 24.498C79.9445 24.1947 79.7232 23.9652 79.4445 23.8095C79.1658 23.6455 78.8667 23.5636 78.547 23.5636C78.2273 23.5636 77.9323 23.6414 77.6618 23.7972C77.3913 23.9529 77.17 24.1824 76.9979 24.4857C76.8339 24.7807 76.752 25.1332 76.752 25.543C76.752 25.9528 76.8339 26.3135 76.9979 26.6249C77.17 26.9282 77.3913 27.1618 77.6618 27.3257C77.9405 27.4897 78.2355 27.5716 78.547 27.5716C78.8667 27.5716 79.1658 27.4938 79.4445 27.338C79.7232 27.1741 79.9445 26.9446 80.1084 26.6495C80.2723 26.3463 80.3543 25.9856 80.3543 25.5676ZM85.4902 19.8752V28.9732H83.7689V19.8752H85.4902Z" fill="white"/>
<path d="M34.6517 3.47098H37.2336L40.9657 10.856L44.6541 3.47098H47.1813V14.2766H44.5312V7.2304L41.004 14.2766H39.9767L36.3347 7.15117V14.2766H34.6572V3.47098H34.6517Z" fill="white"/>
<path d="M51.9188 6.13208V11.8723C51.9188 12.0335 51.9489 12.181 52.0117 12.3204C52.0745 12.457 52.162 12.5772 52.2713 12.681C52.3805 12.7848 52.509 12.8668 52.6538 12.9269C52.8013 12.987 52.9543 13.0171 53.1128 13.0171C53.2084 13.0171 53.3122 12.9925 53.4242 12.9406C53.5362 12.8887 53.6537 12.8176 53.7739 12.7275C53.8914 12.6346 54.0089 12.528 54.1264 12.4051C54.2439 12.2821 54.345 12.151 54.4351 12.0062V6.13208H56.9077V14.2739H54.4351V13.5143C54.1127 13.793 53.7685 14.017 53.3996 14.181C53.0308 14.3449 52.6729 14.4269 52.3286 14.4269C51.9243 14.4269 51.5472 14.3586 51.2003 14.2247C50.8533 14.0908 50.5473 13.9078 50.2905 13.6755C50.0309 13.4433 49.826 13.1728 49.6785 12.8613C49.5309 12.5526 49.4572 12.222 49.4572 11.8696V6.12935H51.9215L51.9188 6.13208Z" fill="white"/>
<path d="M61.2682 14.2739H58.8038V6.13208H61.2682V6.73862C61.5469 6.45994 61.8502 6.23317 62.1753 6.06104C62.5004 5.88892 62.8501 5.80149 63.2244 5.80149C63.4457 5.80149 63.6507 5.83154 63.8446 5.89165C64.0386 5.95176 64.208 6.03099 64.3528 6.13208C64.4976 6.23317 64.6124 6.35065 64.6971 6.48453C64.779 6.6184 64.8227 6.76047 64.8227 6.90801C64.8227 7.05554 64.7954 7.18395 64.738 7.30417C64.6807 7.42711 64.6042 7.5282 64.5058 7.6129C64.4075 7.6976 64.2927 7.76317 64.167 7.80961C64.0386 7.85606 63.8993 7.88065 63.7517 7.88065C63.555 7.88065 63.3938 7.84786 63.2709 7.78776C63.1452 7.72492 63.0305 7.65935 62.9266 7.58558C62.8228 7.51454 62.719 7.44624 62.6124 7.3834C62.5086 7.32056 62.3775 7.29051 62.2163 7.29051C62.1343 7.29051 62.0496 7.32329 61.9649 7.3834C61.883 7.44624 61.801 7.53094 61.719 7.63476C61.6398 7.73858 61.5606 7.85879 61.4841 7.99813C61.4048 8.13474 61.3338 8.27408 61.271 8.41888V14.2766L61.2682 14.2739Z" fill="white"/>
<path d="M70.7953 8.69483C70.7953 8.27954 70.7133 7.95988 70.5494 7.73858C70.3855 7.51727 70.1942 7.40799 69.9729 7.40799C69.8663 7.40799 69.7434 7.42984 69.6068 7.47083C69.4702 7.51454 69.3254 7.57465 69.1751 7.65388C69.0221 7.73311 68.8691 7.82874 68.7107 7.94075C68.5522 8.05004 68.3992 8.17299 68.2517 8.31233V14.2766H65.7709V6.13481H68.2517V6.76867C68.626 6.48999 69.033 6.28508 69.4702 6.15667C69.9073 6.02826 70.3445 5.96542 70.7789 5.96542C71.1122 5.96542 71.4291 6.03099 71.7297 6.16213C72.0302 6.29327 72.2925 6.47086 72.5193 6.6949C72.746 6.9162 72.9264 7.18122 73.0602 7.48175C73.1941 7.78229 73.2624 8.10468 73.2624 8.44893V14.2793H70.798V8.69756L70.7953 8.69483Z" fill="white"/>
<path d="M75.2323 3.52561C75.2323 3.35895 75.2651 3.20322 75.3361 3.05569C75.4044 2.91088 75.4973 2.78247 75.6175 2.67319C75.735 2.5639 75.8771 2.47647 76.0383 2.41363C76.1995 2.35079 76.3716 2.32074 76.5547 2.32074C76.7377 2.32074 76.9126 2.35353 77.0765 2.41363C77.2404 2.47647 77.3825 2.5639 77.5 2.67319C77.6175 2.78247 77.7131 2.91088 77.7869 3.05569C77.8579 3.20322 77.8934 3.35895 77.8934 3.52561C77.8934 3.69227 77.8579 3.84801 77.7869 3.99281C77.7158 4.14035 77.6202 4.26602 77.5 4.37531C77.3798 4.4846 77.2404 4.57202 77.0765 4.63486C76.9126 4.6977 76.7377 4.72776 76.5547 4.72776C76.3716 4.72776 76.1967 4.69497 76.0383 4.63486C75.8771 4.57202 75.7377 4.48733 75.6175 4.37531C75.4973 4.26602 75.4044 4.13761 75.3361 3.99281C75.2678 3.84801 75.2323 3.68954 75.2323 3.52561ZM75.3389 6.56922L77.8032 5.89165V14.2766H75.3389V6.57195V6.56922Z" fill="white"/>
<path d="M82.7429 8.86422C82.7429 9.56638 82.8495 10.1866 83.0598 10.7221C83.2702 11.2576 83.5516 11.7084 83.9041 12.0718C84.2538 12.4351 84.6581 12.7083 85.1144 12.8969C85.5707 13.0854 86.0433 13.1783 86.5378 13.1783C86.9176 13.1783 87.2728 13.1127 87.6007 12.9816C87.9285 12.8504 88.2345 12.6756 88.5159 12.4543C88.7973 12.233 89.0651 11.9761 89.3137 11.6811C89.5651 11.386 89.8028 11.0773 90.0268 10.7576L91.1333 11.5718C90.9011 11.9597 90.6169 12.3286 90.2754 12.6838C89.9366 13.0389 89.5569 13.3531 89.1388 13.6263C88.7181 13.8996 88.2618 14.1181 87.7673 14.2793C87.2728 14.4405 86.751 14.5198 86.1963 14.5198C85.2674 14.5198 84.4122 14.3831 83.6309 14.1127C82.8467 13.8422 82.1719 13.4597 81.6036 12.9652C81.0353 12.4706 80.5927 11.8778 80.273 11.1838C79.9534 10.4898 79.7949 9.71665 79.7949 8.86695C79.7949 8.01726 79.9452 7.28778 80.2512 6.59381C80.5545 5.89985 80.9807 5.30151 81.5271 4.79879C82.0735 4.29608 82.732 3.90538 83.4997 3.62397C84.2674 3.3453 85.1171 3.20322 86.0433 3.20322C86.669 3.20322 87.24 3.27699 87.7564 3.4218C88.2728 3.56933 88.7427 3.76878 89.1662 4.02833C89.5896 4.28788 89.9667 4.59662 90.3 4.9518C90.6333 5.30971 90.9257 5.70313 91.1743 6.12935L90.0486 6.9162C89.8219 6.59381 89.576 6.29054 89.3082 6.00094C89.0405 5.71133 88.7563 5.45997 88.4558 5.2414C88.1553 5.02556 87.8356 4.85344 87.4996 4.72776C87.1635 4.60208 86.8138 4.53924 86.4504 4.53924C85.9504 4.53924 85.475 4.63213 85.027 4.82065C84.5762 5.00917 84.1827 5.28238 83.844 5.64576C83.5052 6.00913 83.2347 6.45994 83.0352 6.99817C82.8358 7.5364 82.7374 8.1566 82.7374 8.85876L82.7429 8.86422Z" fill="white"/>
<path d="M99.4746 14.2739H96.9938V13.6209C96.8572 13.7329 96.7233 13.8394 96.5922 13.9378C96.461 14.0362 96.3162 14.1209 96.1578 14.1919C95.9993 14.2629 95.819 14.3203 95.614 14.3613C95.4091 14.4023 95.1687 14.4241 94.8955 14.4241C94.5212 14.4241 94.1824 14.3695 93.8819 14.2629C93.5813 14.1564 93.3272 14.0088 93.1196 13.8203C92.912 13.6318 92.7508 13.4105 92.6388 13.1509C92.524 12.8914 92.4694 12.6127 92.4694 12.3149C92.4694 11.998 92.5295 11.7166 92.6469 11.4652C92.7672 11.2139 92.9284 10.9898 93.1333 10.7876C93.3382 10.5855 93.5813 10.4051 93.8573 10.2439C94.1332 10.0828 94.431 9.93522 94.7452 9.80134C95.0594 9.66747 95.3873 9.54452 95.7233 9.43524C96.0594 9.32595 96.3954 9.21666 96.7288 9.11011L96.9965 9.04727V8.23583C96.9965 7.71672 96.8982 7.35061 96.696 7.13204C96.4965 6.9162 96.2342 6.80692 95.9064 6.80692C95.7097 6.80692 95.5457 6.8315 95.4119 6.88342C95.278 6.93533 95.1714 7.00363 95.0895 7.09379C95.0103 7.18395 94.9529 7.28504 94.9201 7.40252C94.8873 7.51727 94.8709 7.64295 94.8709 7.77409C94.8709 7.92983 94.8545 8.07736 94.8217 8.21943C94.7889 8.3615 94.7316 8.48991 94.6469 8.5992C94.5649 8.70849 94.4502 8.79865 94.3026 8.86149C94.1578 8.92706 93.972 8.95984 93.7453 8.95984C93.3928 8.95984 93.1114 8.86149 92.8956 8.65931C92.6825 8.45986 92.5732 8.21124 92.5732 7.91343C92.5732 7.61563 92.6688 7.36427 92.8601 7.12384C93.0513 6.88342 93.3081 6.67577 93.6387 6.49818C93.9666 6.32333 94.3436 6.18672 94.7726 6.08836C95.2015 5.99001 95.6523 5.94083 96.1304 5.94083C96.7124 5.94083 97.2178 5.99274 97.6386 6.09656C98.0593 6.20038 98.409 6.35065 98.6795 6.54463C98.95 6.73861 99.1522 6.97084 99.2833 7.24679C99.4145 7.52 99.48 7.826 99.48 8.16752V14.2739H99.4746ZM96.9938 10.0582C96.7561 10.1593 96.5157 10.2767 96.2698 10.4106C96.0266 10.5445 95.8053 10.692 95.6086 10.8532C95.4119 11.0144 95.2534 11.1838 95.1305 11.3614C95.0075 11.539 94.9474 11.7275 94.9474 11.9242C94.9474 12.0799 94.9693 12.2275 95.0102 12.3668C95.0512 12.5062 95.1059 12.6291 95.1742 12.7329C95.2425 12.8368 95.3217 12.9187 95.4119 12.9843C95.502 13.0471 95.5949 13.0772 95.6987 13.0772C95.8955 13.0772 96.0976 13.0143 96.3053 12.8914C96.5129 12.7657 96.7424 12.6127 96.9938 12.4269V10.0609V10.0582Z" fill="white"/>
<path d="M104.1 14.2739H101.636V6.13208H104.1V6.73862C104.379 6.45994 104.682 6.23317 105.007 6.06104C105.332 5.88892 105.682 5.80149 106.056 5.80149C106.278 5.80149 106.482 5.83154 106.676 5.89165C106.87 5.95176 107.04 6.03099 107.185 6.13208C107.329 6.23317 107.444 6.35065 107.529 6.48453C107.611 6.6184 107.655 6.76047 107.655 6.90801C107.655 7.05554 107.627 7.18395 107.57 7.30417C107.512 7.42711 107.436 7.5282 107.338 7.6129C107.239 7.6976 107.124 7.76317 106.999 7.80961C106.87 7.85606 106.731 7.88065 106.584 7.88065C106.387 7.88065 106.226 7.84786 106.103 7.78776C105.977 7.72492 105.862 7.65935 105.758 7.58558C105.655 7.51454 105.551 7.44624 105.444 7.3834C105.34 7.32056 105.209 7.29051 105.048 7.29051C104.966 7.29051 104.881 7.32329 104.797 7.3834C104.715 7.44624 104.633 7.53094 104.551 7.63476C104.472 7.73858 104.392 7.85879 104.316 7.99813C104.237 8.13474 104.166 8.27408 104.103 8.41888V14.2766L104.1 14.2739Z" fill="white"/>
<path d="M112.261 14.4542C111.676 14.4542 111.133 14.3476 110.627 14.1318C110.122 13.9187 109.676 13.6291 109.297 13.2657C108.914 12.9023 108.616 12.4788 108.398 11.9925C108.182 11.5062 108.073 10.998 108.073 10.4625C108.073 9.82047 108.174 9.22486 108.376 8.6757C108.578 8.12654 108.862 7.65388 109.234 7.25226C109.603 6.85063 110.048 6.5337 110.57 6.3042C111.092 6.0747 111.671 5.95995 112.307 5.95995C112.878 5.95995 113.4 6.05011 113.87 6.23044C114.34 6.41349 114.744 6.65938 115.08 6.97085C115.417 7.28231 115.679 7.65115 115.867 8.07736C116.053 8.50358 116.149 8.95711 116.149 9.43797H110.507C110.526 9.8915 110.589 10.3205 110.698 10.733C110.807 11.1428 110.96 11.5062 111.154 11.8177C111.348 12.1291 111.575 12.3805 111.832 12.5635C112.091 12.7466 112.378 12.8395 112.695 12.8395C112.969 12.8395 113.236 12.793 113.499 12.6974C113.761 12.6018 114.004 12.4734 114.228 12.3149C114.449 12.1537 114.643 11.9652 114.807 11.7466C114.971 11.5308 115.089 11.2986 115.16 11.0554L116.427 11.2439C116.302 11.6838 116.1 12.0991 115.821 12.4898C115.542 12.8805 115.212 13.222 114.835 13.5116C114.455 13.8039 114.045 14.0334 113.602 14.2001C113.16 14.3668 112.714 14.4514 112.266 14.4514L112.261 14.4542ZM113.305 8.60467C113.285 8.36697 113.236 8.1484 113.152 7.94895C113.067 7.74951 112.96 7.57738 112.829 7.43531C112.698 7.29324 112.548 7.18395 112.378 7.10472C112.209 7.02822 112.026 6.98724 111.829 6.98724C111.673 6.98724 111.523 7.02549 111.378 7.10472C111.231 7.18122 111.1 7.29051 110.977 7.42985C110.854 7.56918 110.753 7.73858 110.668 7.93802C110.586 8.13747 110.531 8.35877 110.507 8.60467H113.302H113.305Z" fill="white"/>
<path d="M11.587 20.1398H9.64992C9.3931 20.1398 9.18819 19.9321 9.18819 19.678V16.9213H6.43146C6.17464 16.9213 5.96973 16.7137 5.96973 16.4596V14.5225C5.96973 14.2657 6.17737 14.0608 6.43146 14.0608H9.18819V11.304C9.18819 11.0472 9.39583 10.8423 9.64992 10.8423H11.587C11.8438 10.8423 12.0487 11.0499 12.0487 11.304V14.0608H14.8055C15.0623 14.0608 15.2672 14.2684 15.2672 14.5225V16.4596C15.2672 16.7164 15.0596 16.9213 14.8055 16.9213H12.0487V19.678C12.0487 19.9349 11.8411 20.1398 11.587 20.1398Z" fill="white"/>
<path d="M1.11195 24.3363C1.29227 24.3363 1.4562 24.4101 1.58188 24.5221L1.58734 24.5167C3.89873 26.828 7.08988 28.257 10.6171 28.257C16.2425 27.8553 19.0649 23.9839 19.0649 23.9839C19.0649 23.9839 16.7371 25.4538 13.3028 25.8745C13.0214 25.9101 12.8957 25.5385 13.1388 25.3909C16.9147 23.1041 18.1851 19.1972 18.5621 17.6125C18.6578 17.2 19.0211 16.9131 19.4446 16.9131L23.3051 16.9186C23.3598 16.4459 23.3898 15.9678 23.3898 15.4815C23.3898 8.42708 17.6687 2.70871 10.6171 2.70871C7.08988 2.70871 3.896 4.14035 1.58734 6.44901L1.58188 6.44354C1.4562 6.55829 1.29227 6.63206 1.11195 6.63206C0.723986 6.63206 0.412522 6.3206 0.412522 5.93536C0.412522 5.75504 0.48629 5.58838 0.60104 5.46544C3.52443 2.01747 7.93137 -0.135453 12.8383 0.0066185C20.8298 0.238851 27.4798 6.76867 27.846 14.7547C28.253 23.6342 21.1741 30.9618 12.382 30.9618C7.67182 30.9618 3.45886 28.8498 0.620165 25.5275C0.620165 25.5275 0.614701 25.5221 0.611968 25.5194C0.606504 25.5139 0.60104 25.5084 0.595576 25.503C0.480826 25.3746 0.40979 25.2106 0.40979 25.0303C0.40979 24.6423 0.723986 24.3309 1.10922 24.3309L1.11195 24.3363Z" fill="white"/>
<path d="M7.15274 25.5139C7.11449 25.5139 7.08991 25.4866 7.05439 25.4729L7.04619 25.492C2.93978 24.0249 0 20.1015 0 15.4897C0 9.62649 4.75393 4.87257 10.6171 4.87257C15.2372 4.87257 19.1687 7.82328 20.6277 11.9406L20.6085 11.9488C20.6195 11.9761 20.6413 11.998 20.6413 12.028C20.6413 12.1728 20.5238 12.2903 20.379 12.2903C20.2834 12.2903 20.2124 12.2302 20.1687 12.1483L20.1523 12.1565C18.5622 9.09373 15.371 7.0009 11.6799 7.0009C6.40414 7.0009 2.12561 11.2794 2.12561 16.5552C2.12561 20.2409 4.21296 23.432 7.27023 25.0221L7.26203 25.0385C7.344 25.0822 7.4123 25.1533 7.4123 25.2516C7.4123 25.3964 7.29482 25.5139 7.15001 25.5139H7.15274Z" fill="white"/>
</svg>
