<svg width="117" height="33" viewBox="0 0 117 33" fill="none" xmlns="http://www.w3.org/2000/svg">
<path d="M42.6815 20.3916V28.9732H40.9602V25.3217H37.2841V28.9732H35.5629V20.3916H37.2841V23.9201H40.9602V20.3916H42.6815ZM47.4001 29.0839C46.7444 29.0839 46.1543 28.9404 45.6297 28.6536C45.1051 28.3585 44.6912 27.9446 44.388 27.4118C44.0929 26.879 43.9453 26.2643 43.9453 25.5676C43.9453 24.8709 44.097 24.2562 44.4002 23.7234C44.7117 23.1906 45.1338 22.7808 45.6666 22.4939C46.1994 22.1989 46.7936 22.0513 47.4493 22.0513C48.105 22.0513 48.6993 22.1989 49.232 22.4939C49.7648 22.7808 50.1828 23.1906 50.4861 23.7234C50.7976 24.2562 50.9533 24.8709 50.9533 25.5676C50.9533 26.2643 50.7935 26.879 50.4738 27.4118C50.1623 27.9446 49.7361 28.3585 49.1952 28.6536C48.6624 28.9404 48.064 29.0839 47.4001 29.0839ZM47.4001 27.5839C47.7116 27.5839 48.0026 27.5102 48.2731 27.3626C48.5517 27.2069 48.773 26.9774 48.937 26.6741C49.1009 26.3709 49.1829 26.002 49.1829 25.5676C49.1829 24.9201 49.0107 24.4242 48.6665 24.0799C48.3304 23.7275 47.9165 23.5513 47.4247 23.5513C46.9329 23.5513 46.519 23.7275 46.183 24.0799C45.8551 24.4242 45.6912 24.9201 45.6912 25.5676C45.6912 26.2151 45.851 26.7151 46.1707 27.0675C46.4985 27.4118 46.9084 27.5839 47.4001 27.5839ZM54.8224 29.0839C54.265 29.0839 53.765 28.9855 53.3224 28.7888C52.8798 28.5839 52.5274 28.3093 52.2651 27.9651C52.011 27.6208 51.8716 27.2397 51.847 26.8217H53.5806C53.6134 27.0839 53.7404 27.3011 53.9617 27.4733C54.1912 27.6454 54.474 27.7315 54.8101 27.7315C55.1379 27.7315 55.392 27.6659 55.5723 27.5347C55.7608 27.4036 55.8551 27.2356 55.8551 27.0307C55.8551 26.8094 55.7403 26.6454 55.5108 26.5389C55.2895 26.4241 54.933 26.3012 54.4412 26.17C53.933 26.0471 53.515 25.92 53.1872 25.7889C52.8675 25.6578 52.5888 25.4569 52.3511 25.1865C52.1216 24.916 52.0069 24.5512 52.0069 24.0922C52.0069 23.7152 52.1134 23.371 52.3265 23.0595C52.5478 22.748 52.8593 22.5021 53.2609 22.3218C53.6708 22.1415 54.1502 22.0513 54.6994 22.0513C55.5108 22.0513 56.1584 22.2562 56.642 22.6661C57.1255 23.0677 57.3919 23.6128 57.4411 24.3013H55.7936C55.769 24.0308 55.6543 23.8177 55.4494 23.6619C55.2527 23.498 54.9863 23.416 54.6502 23.416C54.3388 23.416 54.097 23.4734 53.9248 23.5882C53.7609 23.7029 53.6789 23.8627 53.6789 24.0677C53.6789 24.2972 53.7937 24.4734 54.0232 24.5963C54.2527 24.7111 54.6092 24.8299 55.0928 24.9529C55.5846 25.0758 55.9903 25.2029 56.31 25.334C56.6297 25.4651 56.9042 25.6701 57.1337 25.9487C57.3714 26.2192 57.4944 26.5799 57.5026 27.0307C57.5026 27.4241 57.3919 27.7765 57.1706 28.088C56.9575 28.3995 56.6461 28.6454 56.2362 28.8257C55.8346 28.9978 55.3633 29.0839 54.8224 29.0839ZM60.6368 23.1456C60.8581 22.8341 61.1613 22.5759 61.5466 22.371C61.94 22.1579 62.3867 22.0513 62.8867 22.0513C63.4686 22.0513 63.9932 22.1948 64.4604 22.4816C64.9358 22.7685 65.3087 23.1783 65.5792 23.7111C65.8579 24.2357 65.9972 24.8463 65.9972 25.543C65.9972 26.2397 65.8579 26.8585 65.5792 27.3995C65.3087 27.9323 64.9358 28.3462 64.4604 28.6413C63.9932 28.9363 63.4686 29.0839 62.8867 29.0839C62.3867 29.0839 61.9441 28.9814 61.5588 28.7765C61.1818 28.5716 60.8744 28.3134 60.6368 28.0019V32.219H58.9155V22.162H60.6368V23.1456ZM64.2391 25.543C64.2391 25.1332 64.153 24.7807 63.9809 24.4857C63.817 24.1824 63.5957 23.9529 63.317 23.7972C63.0465 23.6414 62.7514 23.5636 62.4318 23.5636C62.1203 23.5636 61.8252 23.6455 61.5466 23.8095C61.2761 23.9652 61.0548 24.1947 60.8826 24.498C60.7187 24.8012 60.6368 25.1578 60.6368 25.5676C60.6368 25.9774 60.7187 26.334 60.8826 26.6372C61.0548 26.9405 61.2761 27.1741 61.5466 27.338C61.8252 27.4938 62.1203 27.5716 62.4318 27.5716C62.7514 27.5716 63.0465 27.4897 63.317 27.3257C63.5957 27.1618 63.817 26.9282 63.9809 26.6249C64.153 26.3217 64.2391 25.961 64.2391 25.543ZM68.1209 21.3505C67.8177 21.3505 67.5636 21.2563 67.3587 21.0678C67.1619 20.871 67.0636 20.6293 67.0636 20.3424C67.0636 20.0555 67.1619 19.8178 67.3587 19.6293C67.5636 19.4326 67.8177 19.3342 68.1209 19.3342C68.4242 19.3342 68.6742 19.4326 68.8709 19.6293C69.0758 19.8178 69.1783 20.0555 69.1783 20.3424C69.1783 20.6293 69.0758 20.871 68.8709 21.0678C68.6742 21.2563 68.4242 21.3505 68.1209 21.3505ZM68.9692 22.162V28.9732H67.248V22.162H68.9692ZM72.6739 23.5759V26.8708C72.6739 27.1003 72.7272 27.2684 72.8337 27.3749C72.9485 27.4733 73.137 27.5224 73.3993 27.5224H74.1984V28.9732H73.1165C71.6657 28.9732 70.9403 28.2683 70.9403 26.8585V23.5759H70.1289V22.162H70.9403V20.4776H72.6739V22.162H74.1984V23.5759H72.6739ZM74.9938 25.543C74.9938 24.8545 75.1291 24.2439 75.3995 23.7111C75.6782 23.1783 76.0512 22.7685 76.5183 22.4816C76.9937 22.1948 77.5224 22.0513 78.1044 22.0513C78.6125 22.0513 79.0551 22.1538 79.4322 22.3587C79.8174 22.5636 80.1248 22.8218 80.3543 23.1333V22.162H82.0878V28.9732H80.3543V27.9773C80.133 28.297 79.8256 28.5634 79.4322 28.7765C79.0469 28.9814 78.6002 29.0839 78.0921 29.0839C77.5183 29.0839 76.9937 28.9363 76.5183 28.6413C76.0512 28.3462 75.6782 27.9323 75.3995 27.3995C75.1291 26.8585 74.9938 26.2397 74.9938 25.543ZM80.3543 25.5676C80.3543 25.1496 80.2723 24.793 80.1084 24.498C79.9445 24.1947 79.7231 23.9652 79.4445 23.8095C79.1658 23.6455 78.8666 23.5636 78.547 23.5636C78.2273 23.5636 77.9322 23.6414 77.6617 23.7972C77.3913 23.9529 77.17 24.1824 76.9978 24.4857C76.8339 24.7807 76.7519 25.1332 76.7519 25.543C76.7519 25.9528 76.8339 26.3135 76.9978 26.6249C77.17 26.9282 77.3913 27.1618 77.6617 27.3257C77.9404 27.4897 78.2355 27.5716 78.547 27.5716C78.8666 27.5716 79.1658 27.4938 79.4445 27.338C79.7231 27.1741 79.9445 26.9446 80.1084 26.6495C80.2723 26.3463 80.3543 25.9856 80.3543 25.5676ZM85.4902 19.8752V28.9732H83.7689V19.8752H85.4902Z" fill="#006CB6"/>
<path d="M34.6517 3.47097H37.2336L40.9657 10.856L44.6541 3.47097H47.1813V14.2766H44.5312V7.2304L41.004 14.2766H39.9767L36.3347 7.15117V14.2766H34.6572V3.47097H34.6517Z" fill="#006CB6"/>
<path d="M51.9189 6.13208V11.8723C51.9189 12.0335 51.9489 12.181 52.0118 12.3204C52.0746 12.457 52.162 12.5772 52.2713 12.681C52.3806 12.7848 52.509 12.8668 52.6538 12.9269C52.8013 12.987 52.9543 13.0171 53.1128 13.0171C53.2084 13.0171 53.3123 12.9925 53.4243 12.9406C53.5363 12.8887 53.6538 12.8176 53.774 12.7275C53.8915 12.6346 54.009 12.528 54.1264 12.4051C54.2439 12.2821 54.345 12.151 54.4352 12.0062V6.13208H56.9078V14.2739H54.4352V13.5143C54.1128 13.793 53.7685 14.017 53.3997 14.181C53.0308 14.3449 52.6729 14.4269 52.3287 14.4269C51.9243 14.4269 51.5473 14.3586 51.2003 14.2247C50.8533 14.0908 50.5473 13.9078 50.2905 13.6755C50.031 13.4433 49.826 13.1728 49.6785 12.8613C49.531 12.5526 49.4572 12.222 49.4572 11.8696V6.12935H51.9216L51.9189 6.13208Z" fill="#006CB6"/>
<path d="M61.2683 14.2739H58.8039V6.13208H61.2683V6.73862C61.5469 6.45994 61.8502 6.23317 62.1753 6.06104C62.5005 5.88892 62.8502 5.80149 63.2245 5.80149C63.4458 5.80149 63.6507 5.83154 63.8447 5.89165C64.0387 5.95176 64.2081 6.03099 64.3529 6.13208C64.4977 6.23317 64.6124 6.35065 64.6971 6.48453C64.7791 6.6184 64.8228 6.76047 64.8228 6.90801C64.8228 7.05554 64.7955 7.18395 64.7381 7.30417C64.6807 7.42711 64.6042 7.5282 64.5059 7.6129C64.4075 7.6976 64.2927 7.76317 64.1671 7.80961C64.0387 7.85606 63.8993 7.88065 63.7518 7.88065C63.5551 7.88065 63.3939 7.84786 63.2709 7.78776C63.1453 7.72492 63.0305 7.65935 62.9267 7.58558C62.8229 7.51454 62.719 7.44624 62.6125 7.3834C62.5087 7.32056 62.3775 7.29051 62.2163 7.29051C62.1344 7.29051 62.0497 7.32329 61.965 7.3834C61.883 7.44624 61.801 7.53094 61.7191 7.63476C61.6398 7.73858 61.5606 7.85879 61.4841 7.99813C61.4049 8.13474 61.3338 8.27408 61.271 8.41888V14.2766L61.2683 14.2739Z" fill="#006CB6"/>
<path d="M70.7952 8.69483C70.7952 8.27954 70.7133 7.95988 70.5494 7.73858C70.3854 7.51727 70.1942 7.40799 69.9729 7.40799C69.8663 7.40799 69.7434 7.42985 69.6068 7.47083C69.4702 7.51454 69.3254 7.57465 69.1751 7.65388C69.0221 7.73311 68.8691 7.82874 68.7106 7.94076C68.5522 8.05004 68.3992 8.17299 68.2516 8.31233V14.2766H65.7708V6.13481H68.2516V6.76867C68.6259 6.48999 69.033 6.28508 69.4702 6.15667C69.9073 6.02826 70.3444 5.96542 70.7789 5.96542C71.1122 5.96542 71.4291 6.03099 71.7296 6.16213C72.0302 6.29328 72.2925 6.47086 72.5192 6.6949C72.746 6.9162 72.9263 7.18122 73.0602 7.48176C73.1941 7.78229 73.2624 8.10468 73.2624 8.44893V14.2793H70.798V8.69756L70.7952 8.69483Z" fill="#006CB6"/>
<path d="M75.2323 3.52562C75.2323 3.35896 75.265 3.20322 75.3361 3.05569C75.4044 2.91088 75.4973 2.78247 75.6175 2.67319C75.735 2.5639 75.877 2.47647 76.0382 2.41363C76.1994 2.3508 76.3716 2.32074 76.5546 2.32074C76.7377 2.32074 76.9125 2.35353 77.0764 2.41363C77.2404 2.47647 77.3825 2.5639 77.4999 2.67319C77.6174 2.78247 77.713 2.91088 77.7868 3.05569C77.8578 3.20322 77.8934 3.35896 77.8934 3.52562C77.8934 3.69228 77.8578 3.84801 77.7868 3.99281C77.7158 4.14035 77.6202 4.26603 77.4999 4.37531C77.3797 4.4846 77.2404 4.57203 77.0764 4.63487C76.9125 4.6977 76.7377 4.72776 76.5546 4.72776C76.3716 4.72776 76.1967 4.69497 76.0382 4.63487C75.877 4.57203 75.7377 4.48733 75.6175 4.37531C75.4973 4.26603 75.4044 4.13762 75.3361 3.99281C75.2678 3.84801 75.2323 3.68954 75.2323 3.52562ZM75.3388 6.56922L77.8032 5.89165V14.2766H75.3388V6.57195V6.56922Z" fill="#006CB6"/>
<path d="M82.7429 8.86422C82.7429 9.56638 82.8494 10.1866 83.0598 10.7221C83.2702 11.2576 83.5516 11.7084 83.904 12.0718C84.2538 12.4351 84.6581 12.7083 85.1144 12.8969C85.5707 13.0854 86.0433 13.1783 86.5378 13.1783C86.9176 13.1783 87.2728 13.1127 87.6006 12.9816C87.9285 12.8504 88.2345 12.6756 88.5159 12.4543C88.7973 12.2329 89.0651 11.9761 89.3137 11.6811C89.565 11.386 89.8027 11.0773 90.0268 10.7576L91.1333 11.5718C90.9011 11.9597 90.6169 12.3286 90.2754 12.6838C89.9366 13.0389 89.5569 13.3531 89.1388 13.6263C88.7181 13.8996 88.2618 14.1181 87.7673 14.2793C87.2728 14.4405 86.7509 14.5198 86.1963 14.5198C85.2674 14.5198 84.4122 14.3831 83.6308 14.1127C82.8467 13.8422 82.1719 13.4597 81.6036 12.9652C81.0353 12.4706 80.5927 11.8778 80.273 11.1838C79.9534 10.4898 79.7949 9.71665 79.7949 8.86695C79.7949 8.01726 79.9452 7.28777 80.2512 6.59381C80.5544 5.89985 80.9807 5.30151 81.5271 4.79879C82.0735 4.29608 82.732 3.90538 83.4997 3.62397C84.2674 3.34529 85.1171 3.20322 86.0433 3.20322C86.669 3.20322 87.24 3.27699 87.7564 3.42179C88.2727 3.56933 88.7427 3.76878 89.1661 4.02833C89.5896 4.28788 89.9667 4.59661 90.3 4.95179C90.6333 5.3097 90.9256 5.70313 91.1743 6.12935L90.0486 6.9162C89.8219 6.59381 89.576 6.29054 89.3082 6.00094C89.0405 5.71133 88.7563 5.45997 88.4558 5.2414C88.1553 5.02556 87.8356 4.85344 87.4995 4.72776C87.1635 4.60208 86.8138 4.53924 86.4504 4.53924C85.9504 4.53924 85.475 4.63213 85.027 4.82065C84.5762 5.00917 84.1827 5.28238 83.8439 5.64576C83.5052 6.00913 83.2347 6.45994 83.0352 6.99817C82.8358 7.5364 82.7374 8.15659 82.7374 8.85876L82.7429 8.86422Z" fill="#1EBCC5"/>
<path d="M99.4745 14.2739H96.9937V13.6209C96.8571 13.7329 96.7233 13.8394 96.5921 13.9378C96.461 14.0362 96.3162 14.1209 96.1577 14.1919C95.9992 14.2629 95.8189 14.3203 95.614 14.3613C95.4091 14.4023 95.1687 14.4241 94.8954 14.4241C94.5211 14.4241 94.1824 14.3695 93.8818 14.2629C93.5813 14.1564 93.3272 14.0088 93.1196 13.8203C92.9119 13.6318 92.7507 13.4105 92.6387 13.151C92.524 12.8914 92.4693 12.6127 92.4693 12.3149C92.4693 11.998 92.5294 11.7166 92.6469 11.4652C92.7671 11.2139 92.9283 10.9898 93.1332 10.7876C93.3381 10.5855 93.5813 10.4051 93.8572 10.244C94.1332 10.0828 94.431 9.93522 94.7452 9.80134C95.0594 9.66747 95.3872 9.54452 95.7233 9.43524C96.0593 9.32595 96.3954 9.21667 96.7287 9.11011L96.9965 9.04727V8.23583C96.9965 7.71672 96.8981 7.35061 96.6959 7.13204C96.4965 6.9162 96.2342 6.80692 95.9063 6.80692C95.7096 6.80692 95.5457 6.83151 95.4118 6.88342C95.278 6.93533 95.1714 7.00363 95.0894 7.09379C95.0102 7.18395 94.9528 7.28504 94.92 7.40252C94.8873 7.51727 94.8709 7.64295 94.8709 7.7741C94.8709 7.92983 94.8545 8.07736 94.8217 8.21943C94.7889 8.36151 94.7315 8.48992 94.6468 8.5992C94.5649 8.70849 94.4501 8.79865 94.3026 8.86149C94.1578 8.92706 93.972 8.95984 93.7452 8.95984C93.3928 8.95984 93.1114 8.86149 92.8955 8.65931C92.6824 8.45986 92.5731 8.21124 92.5731 7.91343C92.5731 7.61563 92.6688 7.36427 92.86 7.12385C93.0513 6.88342 93.3081 6.67577 93.6387 6.49819C93.9665 6.32333 94.3436 6.18672 94.7725 6.08836C95.2015 5.99001 95.6523 5.94083 96.1304 5.94083C96.7123 5.94083 97.2178 5.99274 97.6385 6.09656C98.0593 6.20038 98.409 6.35065 98.6795 6.54463C98.9499 6.73861 99.1521 6.97085 99.2833 7.24679C99.4144 7.52001 99.48 7.82601 99.48 8.16752V14.2739H99.4745ZM96.9937 10.0582C96.756 10.1593 96.5156 10.2767 96.2697 10.4106C96.0266 10.5445 95.8053 10.692 95.6085 10.8532C95.4118 11.0144 95.2534 11.1838 95.1304 11.3614C95.0075 11.539 94.9474 11.7275 94.9474 11.9242C94.9474 12.0799 94.9692 12.2275 95.0102 12.3668C95.0512 12.5062 95.1058 12.6291 95.1741 12.7329C95.2424 12.8368 95.3217 12.9187 95.4118 12.9843C95.502 13.0471 95.5949 13.0772 95.6987 13.0772C95.8954 13.0772 96.0976 13.0143 96.3052 12.8914C96.5129 12.7657 96.7424 12.6127 96.9937 12.4269V10.0609V10.0582Z" fill="#1EBCC5"/>
<path d="M104.1 14.2739H101.636V6.13208H104.1V6.73862C104.379 6.45994 104.682 6.23317 105.007 6.06104C105.332 5.88892 105.682 5.80149 106.056 5.80149C106.278 5.80149 106.482 5.83154 106.676 5.89165C106.87 5.95176 107.04 6.03099 107.185 6.13208C107.329 6.23317 107.444 6.35065 107.529 6.48453C107.611 6.6184 107.655 6.76047 107.655 6.90801C107.655 7.05554 107.627 7.18395 107.57 7.30417C107.513 7.42711 107.436 7.5282 107.338 7.6129C107.239 7.6976 107.125 7.76317 106.999 7.80961C106.87 7.85606 106.731 7.88065 106.584 7.88065C106.387 7.88065 106.226 7.84786 106.103 7.78776C105.977 7.72492 105.862 7.65935 105.758 7.58558C105.655 7.51454 105.551 7.44624 105.444 7.3834C105.34 7.32056 105.209 7.29051 105.048 7.29051C104.966 7.29051 104.881 7.32329 104.797 7.3834C104.715 7.44624 104.633 7.53094 104.551 7.63476C104.472 7.73858 104.392 7.85879 104.316 7.99813C104.237 8.13474 104.166 8.27408 104.103 8.41888V14.2766L104.1 14.2739Z" fill="#1EBCC5"/>
<path d="M112.261 14.4542C111.676 14.4542 111.133 14.3476 110.627 14.1318C110.122 13.9187 109.676 13.6291 109.297 13.2657C108.914 12.9023 108.616 12.4788 108.398 11.9925C108.182 11.5062 108.073 10.998 108.073 10.4625C108.073 9.82047 108.174 9.22486 108.376 8.6757C108.578 8.12654 108.862 7.65388 109.234 7.25225C109.603 6.85063 110.048 6.5337 110.57 6.3042C111.092 6.0747 111.671 5.95995 112.307 5.95995C112.878 5.95995 113.4 6.05011 113.87 6.23043C114.34 6.41349 114.744 6.65938 115.081 6.97084C115.417 7.28231 115.679 7.65115 115.867 8.07736C116.053 8.50357 116.149 8.95711 116.149 9.43797H110.507C110.526 9.8915 110.589 10.3204 110.698 10.733C110.807 11.1428 110.96 11.5062 111.154 11.8177C111.348 12.1291 111.575 12.3805 111.832 12.5635C112.092 12.7466 112.378 12.8395 112.695 12.8395C112.969 12.8395 113.236 12.793 113.499 12.6974C113.761 12.6018 114.004 12.4734 114.228 12.3149C114.449 12.1537 114.643 11.9652 114.807 11.7466C114.971 11.5308 115.089 11.2986 115.16 11.0554L116.427 11.2439C116.302 11.6838 116.1 12.0991 115.821 12.4898C115.542 12.8805 115.212 13.222 114.835 13.5116C114.455 13.8039 114.045 14.0334 113.602 14.2001C113.16 14.3668 112.714 14.4514 112.266 14.4514L112.261 14.4542ZM113.305 8.60466C113.285 8.36697 113.236 8.1484 113.152 7.94895C113.067 7.7495 112.96 7.57738 112.829 7.43531C112.698 7.29324 112.548 7.18395 112.378 7.10472C112.209 7.02822 112.026 6.98724 111.829 6.98724C111.674 6.98724 111.523 7.02549 111.378 7.10472C111.231 7.18122 111.1 7.2905 110.977 7.42984C110.854 7.56918 110.753 7.73858 110.668 7.93802C110.586 8.13747 110.531 8.35877 110.507 8.60466H113.302H113.305Z" fill="#1EBCC5"/>
<path d="M11.587 20.1398H9.64989C9.39306 20.1398 9.18815 19.9321 9.18815 19.678V16.9213H6.43142C6.1746 16.9213 5.96969 16.7137 5.96969 16.4596V14.5225C5.96969 14.2657 6.17733 14.0607 6.43142 14.0607H9.18815V11.304C9.18815 11.0472 9.3958 10.8423 9.64989 10.8423H11.587C11.8438 10.8423 12.0487 11.0499 12.0487 11.304V14.0607H14.8054C15.0623 14.0607 15.2672 14.2684 15.2672 14.5225V16.4596C15.2672 16.7164 15.0595 16.9213 14.8054 16.9213H12.0487V19.678C12.0487 19.9349 11.8411 20.1398 11.587 20.1398Z" fill="#ED4224"/>
<path d="M1.11195 24.3363C1.29228 24.3363 1.4562 24.4101 1.58188 24.5221L1.58735 24.5167C3.89874 26.828 7.08988 28.257 10.6171 28.257C16.2426 27.8553 19.0649 23.9839 19.0649 23.9839C19.0649 23.9839 16.7371 25.4538 13.3028 25.8745C13.0214 25.9101 12.8957 25.5385 13.1388 25.3909C16.9147 23.1041 18.1851 19.1972 18.5621 17.6125C18.6578 17.2 19.0211 16.9131 19.4446 16.9131L23.3051 16.9186C23.3598 16.4459 23.3898 15.9678 23.3898 15.4815C23.3898 8.42708 17.6687 2.70871 10.6171 2.70871C7.08988 2.70871 3.89601 4.14035 1.58735 6.44901L1.58188 6.44354C1.4562 6.55829 1.29228 6.63206 1.11195 6.63206C0.72399 6.63206 0.412526 6.3206 0.412526 5.93536C0.412526 5.75504 0.486294 5.58838 0.601043 5.46544C3.52443 2.01747 7.93138 -0.135453 12.8383 0.0066185C20.8298 0.238851 27.4798 6.76867 27.846 14.7547C28.253 23.6342 21.1741 30.9618 12.382 30.9618C7.67183 30.9618 3.45886 28.8498 0.620168 25.5275C0.620168 25.5275 0.614704 25.5221 0.611972 25.5194C0.606508 25.5139 0.601044 25.5084 0.59558 25.503C0.48083 25.3746 0.409794 25.2106 0.409794 25.0303C0.409794 24.6423 0.72399 24.3309 1.10922 24.3309L1.11195 24.3363Z" fill="#086DB5"/>
<path d="M7.15271 25.5139C7.11446 25.5139 7.08987 25.4866 7.05436 25.4729L7.04616 25.492C2.93975 24.0249 -3.05176e-05 20.1015 -3.05176e-05 15.4897C-3.05176e-05 9.62649 4.7539 4.87256 10.6171 4.87256C15.2371 4.87256 19.1687 7.82328 20.6276 11.9406L20.6085 11.9488C20.6194 11.9761 20.6413 11.998 20.6413 12.028C20.6413 12.1728 20.5238 12.2903 20.379 12.2903C20.2834 12.2903 20.2123 12.2302 20.1686 12.1483L20.1522 12.1565C18.5621 9.09372 15.371 7.0009 11.6799 7.0009C6.40411 7.0009 2.12557 11.2794 2.12557 16.5552C2.12557 20.2409 4.21293 23.432 7.2702 25.0221L7.262 25.0385C7.34396 25.0822 7.41227 25.1533 7.41227 25.2516C7.41227 25.3964 7.29479 25.5139 7.14998 25.5139H7.15271Z" fill="#1ABCC5"/>
</svg>
