<svg width="28" height="31" viewBox="0 0 28 31" fill="none" xmlns="http://www.w3.org/2000/svg">
<path d="M11.587 20.1398H9.64989C9.39306 20.1398 9.18815 19.9321 9.18815 19.678V16.9213H6.43142C6.1746 16.9213 5.96969 16.7137 5.96969 16.4596V14.5225C5.96969 14.2657 6.17733 14.0607 6.43142 14.0607H9.18815V11.304C9.18815 11.0472 9.3958 10.8423 9.64989 10.8423H11.587C11.8438 10.8423 12.0487 11.0499 12.0487 11.304V14.0607H14.8054C15.0623 14.0607 15.2672 14.2684 15.2672 14.5225V16.4596C15.2672 16.7164 15.0595 16.9213 14.8054 16.9213H12.0487V19.678C12.0487 19.9349 11.8411 20.1398 11.587 20.1398Z" fill="#ED4224"/>
<path d="M1.11195 24.3363C1.29228 24.3363 1.4562 24.4101 1.58188 24.5221L1.58735 24.5167C3.89874 26.8281 7.08988 28.257 10.6171 28.257C16.2426 27.8553 19.0649 23.9839 19.0649 23.9839C19.0649 23.9839 16.7371 25.4538 13.3028 25.8745C13.0214 25.9101 12.8957 25.5385 13.1388 25.391C16.9147 23.1041 18.1851 19.1972 18.5621 17.6125C18.6578 17.2 19.0211 16.9131 19.4446 16.9131L23.3051 16.9186C23.3598 16.4459 23.3898 15.9678 23.3898 15.4815C23.3898 8.42709 17.6687 2.70871 10.6171 2.70871C7.08988 2.70871 3.89601 4.14036 1.58735 6.44902L1.58188 6.44355C1.4562 6.5583 1.29228 6.63207 1.11195 6.63207C0.72399 6.63207 0.412526 6.3206 0.412526 5.93537C0.412526 5.75505 0.486294 5.58839 0.601043 5.46544C3.52443 2.01748 7.93138 -0.135445 12.8383 0.00662612C20.8298 0.238858 27.4798 6.76868 27.846 14.7547C28.253 23.6342 21.1741 30.9618 12.382 30.9618C7.67183 30.9618 3.45886 28.8498 0.620168 25.5276C0.620168 25.5276 0.614704 25.5221 0.611972 25.5194C0.606508 25.5139 0.601044 25.5084 0.59558 25.503C0.48083 25.3746 0.409794 25.2106 0.409794 25.0303C0.409794 24.6423 0.72399 24.3309 1.10922 24.3309L1.11195 24.3363Z" fill="#086DB5"/>
<path d="M7.15271 25.5139C7.11446 25.5139 7.08987 25.4866 7.05436 25.4729L7.04616 25.492C2.93975 24.0249 -3.05176e-05 20.1015 -3.05176e-05 15.4897C-3.05176e-05 9.62648 4.7539 4.87256 10.6171 4.87256C15.2371 4.87256 19.1687 7.82327 20.6276 11.9406L20.6085 11.9488C20.6194 11.9761 20.6413 11.998 20.6413 12.028C20.6413 12.1728 20.5238 12.2903 20.379 12.2903C20.2834 12.2903 20.2123 12.2302 20.1686 12.1483L20.1522 12.1564C18.5621 9.09372 15.371 7.0009 11.6799 7.0009C6.40411 7.0009 2.12557 11.2794 2.12557 16.5552C2.12557 20.2409 4.21293 23.432 7.2702 25.0221L7.262 25.0385C7.34396 25.0822 7.41227 25.1532 7.41227 25.2516C7.41227 25.3964 7.29479 25.5139 7.14998 25.5139H7.15271Z" fill="#1ABCC5"/>
</svg>
